<!-- Generator: Adobe Illustrator 19.2.1, SVG Export Plug-In . SVG Version: 6.00 Build 0)  -->
<svg version="1.1" id="layer" xmlns="http://www.w3.org/2000/svg" xmlns:xlink="http://www.w3.org/1999/xlink" x="0px" y="0px"
	 viewBox="0 0 652 652" style="enable-background:new 0 0 652 652;" xml:space="preserve">
<style type="text/css">
	.st0{fill:#444444;}
</style>
<path class="st0" d="M122.3,399.7c22,0,42.4-4.9,66-15.9v17.7c-23.6,11-44,15.9-66,15.9c-56.3,0-102.2-40.9-102.2-100
	c0-3.2,0.1-6.2,0.4-9.3C24.6,362.6,68.7,399.7,122.3,399.7z M48.4,299.7c0-43.8,33.5-73,73.9-73c22,0,44,6.1,66,20.3v17.7
	c-22-14.1-44-20.3-66-20.3c-37.1,0-69.3,24.8-73.4,64.5C48.6,305.9,48.4,302.9,48.4,299.7L48.4,299.7z M440.6,317.4
	c0,55.1-44.8,99.9-100,99.9s-99.9-44.7-99.9-99.9c0-3.1,0.1-6,0.4-9c4.3,51.1,47.2,91.2,99.5,91.2c52.2,0,95.1-40.1,99.6-91.1
	C440.5,311.5,440.6,314.5,440.6,317.4L440.6,317.4z M412.5,299.4c0-40.5-32.2-72.2-71.6-72.2c-39.5,0-71.6,31.7-71.6,72.2
	c0,3.2,0.1,6.1,0.5,9.2c4.2-36.2,34.5-63.7,71.2-63.7c36.8,0,67,27.4,71.2,63.8C412.4,305.6,412.5,302.6,412.5,299.4z M620,360.6
	c0,33.3-30.3,56.8-67.3,56.8c-27,0-52.1-9.5-68.7-30.2l9.7-7.7c15.9,13.9,36.7,20.2,58.9,20.2c33.9,0,62.1-19.7,66.6-48.5
	C619.9,354.1,620.1,357.2,620,360.6L620,360.6z M592.5,342.9c0,3.7-0.5,6.8-1.4,9.7c-12-33.5-101.8-22-101.8-83.6
	c0-3.1,0.2-5.9,0.7-8.6C499.1,315.6,592.5,301.6,592.5,342.9z M606.3,233.3c3.4,2.6,6.7,5.6,9.5,9l-18.9,17.3
	c-10-10-25.3-17.6-44.7-17.6c-15.8,0-29.2,6.1-33.7,17.7c-1.1-2.5-1.7-5.2-1.7-8.5c0-17.6,15.7-26.9,35.4-26.9
	c19.4,0,34.7,7.6,44.7,17.6C596.9,241.9,606.3,233.3,606.3,233.3z"/>
</svg>